<svg xmlns="http://www.w3.org/2000/svg" width="25" height="34" viewBox="0 0 25 34"><defs><style>.cls-1{fill:#fff;fill-rule:evenodd}</style></defs><path id="icon-strategy.svg" class="cls-1" d="M588.811 1772.87l-2.818-5.77h1.462a.94.94 0 0 0 0-1.88h-2.38l-4.027-8.24c.049-.22.136-.55.237-.94a19.158 19.158 0 0 0 .77-3.97 5.716 5.716 0 0 0-4.636-5.68v-2.45a.924.924 0 1 0-1.848 0v2.45a5.717 5.717 0 0 0-4.637 5.68 21.284 21.284 0 0 0 .883 4.46c.05.18.09.33.122.45l-4.024 8.24h-2.379a.94.94 0 0 0 0 1.88H567l-2.819 5.77a2.016 2.016 0 0 0-.183.87l.084 2.22a1.045 1.045 0 0 0 1.046 1.04 1.19 1.19 0 0 0 .489-.11l2.245-1.13a1.725 1.725 0 0 0 .706-.72l3.875-7.94h3.131v.93a.924.924 0 1 0 1.848 0v-.93h3.13l3.875 7.94a1.728 1.728 0 0 0 .707.72l2.245 1.13a1.189 1.189 0 0 0 .488.11 1.046 1.046 0 0 0 1.047-1.04l.084-2.22a2 2 0 0 0-.187-.87zm-12.317-24.68a3.8 3.8 0 0 1 3.714 3.88 19.011 19.011 0 0 1-.707 3.49c-.127.48-.227.86-.281 1.12-.483 2.37-1.71 2.68-2.726 2.68-1.469 0-2.261-.79-2.732-2.71a19.64 19.64 0 0 0-.163-.62 22.243 22.243 0 0 1-.817-3.96 3.8 3.8 0 0 1 3.712-3.88zm0 15.26a.932.932 0 0 0-.924.94v.83h-2.213l2.008-4.11a5.077 5.077 0 0 0 1.128.13 4.99 4.99 0 0 0 1.13-.13l2.007 4.11h-2.212v-.83a.932.932 0 0 0-.918-.94zm-9.541 10.66l-1.081.55-.04-.95 7.035-14.4a4.445 4.445 0 0 0 .841.97zm20.157.54l-1.075-.54-6.742-13.8a4.155 4.155 0 0 0 .85-.96l7 14.32zm-10.61-21.79a1.425 1.425 0 1 0-1.4-1.42 1.413 1.413 0 0 0 1.4 1.42z" transform="translate(-564 -1743)"/></svg>