<svg id="icon-request.svg" xmlns="http://www.w3.org/2000/svg" width="60" height="67.156" viewBox="0 0 60 67.156"><defs><style>.cls-1{fill:#5afeb6;fill-rule:evenodd}</style></defs><path class="cls-1" d="M970.7 258.078h8.239l22.069-21.8-8.241-8.141-22.067 21.8v8.142zm3.044-3.008v-3.888l3.935 3.888h-3.935zm2.152-6.015l13.066-12.911 3.936 3.889-13.067 12.911zm20.804-12.782l-1.652 1.633-3.936-3.888 1.653-1.633z" transform="translate(-941 -202.844)"/><path class="cls-1" d="M986.975 257.581v10.921a1.516 1.516 0 0 1-1.536 1.5l-42.881-.018a1.522 1.522 0 0 1-1.539-1.5l-.012-54.01a1.518 1.518 0 0 1 1.537-1.5h11.019a1.752 1.752 0 0 1 .193.018c.038.006.076.007.112.015.053.011.1.03.154.046a1.336 1.336 0 0 1 .131.042c.047.02.088.047.132.071s.086.042.126.068.075.061.113.091a1.366 1.366 0 0 1 .116.095c.029.03.054.065.081.1a1.2 1.2 0 0 1 .11.137c0 .006.009.01.013.017l2.445 4.305 12.983.007 2.443-4.3a.088.088 0 0 1 .012-.015 1.516 1.516 0 0 1 .113-.141c.027-.031.05-.065.079-.094a1.371 1.371 0 0 1 .109-.09 1.218 1.218 0 0 1 .119-.1c.037-.025.079-.043.118-.065s.092-.053.14-.074.092-.029.139-.043a1.357 1.357 0 0 1 .145-.045c.04-.008.085-.009.126-.015a1.739 1.739 0 0 1 .177-.018h11.476a1.521 1.521 0 0 1 1.539 1.5v14.388c0 .025-3.02 2.465-3.02 2.465 0-2.974.018-15.353.018-15.353h-9.148l-2.442 4.3a1.547 1.547 0 0 1-1.3.7l-14.677-.009a1.551 1.551 0 0 1-1.3-.7l-2.444-4.3h-8.688l.012 51.007 39.959.016v-7.1zm-23.2-51.74c2.232 0 2.7 2.54 2.7 3.039a1.523 1.523 0 0 0 1.512 1.5c1.057.019 1.875 0 2.6-.007a35.408 35.408 0 0 1 2.211.008.7.7 0 0 1 .756.66 1.549 1.549 0 0 0 1.693 1.336 1.511 1.511 0 0 0 1.367-1.652 3.754 3.754 0 0 0-3.683-3.345c-.859-.037-1.606-.024-2.4-.012-.363.008-.75.014-1.179.016a5.689 5.689 0 0 0-11.146-.006c-.43 0-.817-.01-1.179-.017a37.798 37.798 0 0 0-2.4.008 3.744 3.744 0 0 0-3.68 3.341 1.512 1.512 0 0 0 1.367 1.653 1.533 1.533 0 0 0 1.686-1.329.7.7 0 0 1 .756-.66c.764-.033 1.434-.02 2.21-.006.721.013 1.539.028 2.6.01a1.519 1.519 0 0 0 1.51-1.5c-.003-.501.465-3.038 2.695-3.037zm-9.875 26.068h20.06a1.5 1.5 0 1 0 0-3h-20.067a1.5 1.5 0 1 0 .007 3zm0 7.079h12.235a1.5 1.5 0 1 0 0-3h-12.234a1.5 1.5 0 1 0-.001 3zm12.235 4.078h-12.233a1.5 1.5 0 1 0 0 3h12.233a1.5 1.5 0 1 0-.004-3z" transform="translate(-941 -202.844)"/></svg>