<svg xmlns="http://www.w3.org/2000/svg" width="40" height="43" viewBox="0 0 40 43"><defs><style>.cls-1{fill:#5afeb6;fill-rule:evenodd}</style></defs><path id="btn-gnb-home.svg" class="cls-1" d="M1284.01 273.12a2 2 0 0 0-.04-.346.92.92 0 0 0-.05-.162c-.02-.058-.03-.117-.05-.173s-.07-.122-.1-.182c-.03-.043-.04-.086-.07-.126a1.954 1.954 0 0 0-.33-.356c-.03-.033-.05-.067-.08-.1l-14.62-14.156a1.834 1.834 0 0 0-1.3-.525 1.874 1.874 0 0 0-1.31.525l-4.07 4.157v-3a1.456 1.456 0 0 0-1.49-1.681 1.549 1.549 0 0 0-1.5 1.791v6.252l-14.47 13.987a1.652 1.652 0 0 0-.22.274.5.5 0 0 0-.08.139 1.106 1.106 0 0 0-.09.17 1.186 1.186 0 0 0-.06.183.92.92 0 0 1-.05.151 2.082 2.082 0 0 0-.03.352v17.919a1.809 1.809 0 0 0 1.82 1.793h29.24a1.73 1.73 0 0 0 .35-.034c.05-.01.11-.031.16-.044s.12-.033.18-.058.12-.058.18-.089c.04-.027.09-.044.14-.076a1.972 1.972 0 0 0 .28-.225l7.12-7.167a1.585 1.585 0 0 0 .23-.273c.03-.041.05-.09.08-.139s.06-.11.09-.169a1.233 1.233 0 0 0 .05-.182.855.855 0 0 0 .05-.153 2.074 2.074 0 0 0 .04-.351V273.12zm-2.99 16.643l-4.03 4.045v-12.786l4.03-4.047v12.788zm-34.03-8.735l13.28-12.538 13.73 12.552v15.934h-27.01v-15.948zm20.41-19.71l12.21 11.828-4.58 4.6-12.21-11.831zm-5.1 20.638h-6.62a1.706 1.706 0 0 0-1.7 1.714v6.637a1.707 1.707 0 0 0 1.7 1.714h6.62a1.707 1.707 0 0 0 1.7-1.714v-6.637a1.706 1.706 0 0 0-1.7-1.714zm-1.31 7.024h-4V285h4v3.983z" transform="translate(-1244 -257)"/></svg>