<svg xmlns="http://www.w3.org/2000/svg" width="28.031" height="32" viewBox="0 0 28.031 32"><defs><style>.cls-1{fill:#fff;fill-rule:evenodd}</style></defs><path id="icon-creative.svg" class="cls-1" d="M883.115 1748.02a8.137 8.137 0 0 1 8.122 8.15 2.435 2.435 0 0 0 4.866.16 3.054 3.054 0 0 1 .963-2.23 3.772 3.772 0 0 1-1.464-3.1 6.587 6.587 0 0 1 .62-2.75 7.811 7.811 0 0 1 4.95-4.25 4.1 4.1 0 0 0-.072 3.32c.506.99 2.275 2.27 1.824 4.6a3.473 3.473 0 0 1-1.292 2.16 3.067 3.067 0 0 1 .969 2.49l-1.76 19.43h-2.967l-.286-3.18a16.025 16.025 0 0 1-6.351 1.3 16.285 16.285 0 0 1-16.243-16.32v-1.63a8.137 8.137 0 0 1 8.121-8.15zm12.994 16.31a1.592 1.592 0 0 1 .724.17l-.475-5.27a4.007 4.007 0 0 1-2.686 1.02 4.067 4.067 0 0 1-4.06-4.08 6.5 6.5 0 1 0-13 0v1.63a14.615 14.615 0 0 0 20.814 13.31l-.347-3.84a1.63 1.63 0 1 1-.975-2.94zm-9.745 0a1.63 1.63 0 1 1-1.625 1.63 1.626 1.626 0 0 1 1.625-1.63zm4.873 1.63a1.635 1.635 0 1 0 1.625 1.63 1.628 1.628 0 0 0-1.625-1.63zm-8.122-6.52a3.265 3.265 0 1 0-3.248-3.27 3.257 3.257 0 0 0 3.248 3.27zm0-1.64a1.63 1.63 0 1 0-1.623-1.63 1.62 1.62 0 0 0 1.623 1.63zm0 3.27a1.63 1.63 0 1 1-1.623 1.63 1.628 1.628 0 0 1 1.623-1.63zm16.242-6.28a1.582 1.582 0 0 1 1.625 1.63l-1.625 17.95-1.623-17.95a1.587 1.587 0 0 1 1.623-1.63zm0-1.63a1.808 1.808 0 0 0 1.972-1.55c.391-2.02-2.181-2.86-1.972-4.98a6.281 6.281 0 0 0-2.13 4.35 1.987 1.987 0 0 0 2.13 2.18z" transform="translate(-875 -1744)"/></svg>