<svg xmlns="http://www.w3.org/2000/svg" width="28" height="28" viewBox="0 0 28 28"><defs><style>.cls-1{fill:#fff;fill-rule:evenodd}</style></defs><path id="icon-maintenance.svg" class="cls-1" d="M1214.74 1775l-3.52-.01a.929.929 0 0 1-.88-.62l-.95-2.68a11.845 11.845 0 0 1-1.42-.6l-2.58 1.22a.929.929 0 0 1-1.06-.18l-2.49-2.49a.961.961 0 0 1-.18-1.07l1.23-2.57a9.868 9.868 0 0 1-.59-1.42l-2.68-.96a.929.929 0 0 1-.62-.88v-3.52a.925.925 0 0 1 .63-.88l2.68-.95a11.791 11.791 0 0 1 .59-1.42l-1.21-2.58a.929.929 0 0 1 .18-1.06l2.49-2.48a.947.947 0 0 1 1.07-.19l2.57 1.23a10.912 10.912 0 0 1 1.42-.59l.96-2.68a.929.929 0 0 1 .88-.62h3.52a.934.934 0 0 1 .88.63l.95 2.68a10.364 10.364 0 0 1 1.42.59l2.58-1.22a.931.931 0 0 1 1.06.19l2.48 2.49a.934.934 0 0 1 .19 1.06l-1.23 2.57a11.935 11.935 0 0 1 .59 1.43l2.68.96a.929.929 0 0 1 .62.88l-.01 3.52a.939.939 0 0 1-.62.88l-2.68.95a11.845 11.845 0 0 1-.6 1.42l1.22 2.57a.944.944 0 0 1-.18 1.07l-2.49 2.48a.928.928 0 0 1-1.07.18l-2.57-1.22a11.791 11.791 0 0 1-1.42.59l-.96 2.68a.939.939 0 0 1-.88.62zm-2.86-1.88l2.2.01.89-2.5a.974.974 0 0 1 .63-.59 9.037 9.037 0 0 0 1.93-.8.963.963 0 0 1 .86-.02l2.39 1.14 1.56-1.55-1.14-2.4a.934.934 0 0 1 .03-.86 9.616 9.616 0 0 0 .81-1.93.923.923 0 0 1 .58-.62l2.5-.89.01-2.19-2.5-.9a.937.937 0 0 1-.59-.62 9.037 9.037 0 0 0-.8-1.93.964.964 0 0 1-.02-.86l1.14-2.4-1.55-1.55-2.4 1.13a.943.943 0 0 1-.85-.02 9.951 9.951 0 0 0-1.94-.81.923.923 0 0 1-.62-.58l-.89-2.51h-2.19l-.89 2.5a.974.974 0 0 1-.63.59 9 9 0 0 0-1.93.79.934.934 0 0 1-.86.03l-2.39-1.14-1.56 1.55 1.14 2.4a.976.976 0 0 1-.03.85 9.951 9.951 0 0 0-.81 1.94.916.916 0 0 1-.59.62l-2.5.88v2.2l2.5.89a.959.959 0 0 1 .58.63 10.2 10.2 0 0 0 .8 1.93.934.934 0 0 1 .03.86l-1.14 2.39 1.55 1.56 2.4-1.14a.943.943 0 0 1 .85.03 9.616 9.616 0 0 0 1.93.81.938.938 0 0 1 .63.58zm14.18-10.34zm-13.06 4.99h-.01a6.77 6.77 0 0 1 .01-13.54h.01a.935.935 0 0 1 0 1.87h-.01a4.9 4.9 0 0 0-.01 9.8h.01a4.88 4.88 0 0 0 3.46-1.43 4.956 4.956 0 0 0 1.44-3.47 4.9 4.9 0 0 0-1.43-3.46.933.933 0 0 1 1.32-1.32 6.77 6.77 0 0 1-4.79 11.55z" transform="translate(-1199 -1747)"/></svg>