<svg xmlns="http://www.w3.org/2000/svg" width="50" height="68" viewBox="0 0 50 68"><defs><style>.cls-1{fill:#5afeb6;fill-rule:evenodd}</style></defs><path id="icon-support.svg" class="cls-1" d="M961.052 3023.25l-1.052 1.03-1.052-1.03a10.822 10.822 0 0 0-15.058-.13 10.306 10.306 0 0 0 .127 14.76l14.841 14.52a1.614 1.614 0 0 0 1.139.46H960a1.612 1.612 0 0 0 1.139-.46l14.843-14.52a10.307 10.307 0 0 0 .126-14.76 10.823 10.823 0 0 0-15.056.13zm12.654 12.39L960 3049.05l-13.7-13.41a7.172 7.172 0 0 1-.127-10.28 7.537 7.537 0 0 1 10.5.12l2.184 2.14a.042.042 0 0 0 0 .01 1.647 1.647 0 0 0 2.278 0l2.192-2.15a7.538 7.538 0 0 1 10.5-.12 7.174 7.174 0 0 1-.121 10.28zM960 3055.71a1.6 1.6 0 0 0-1.612 1.58v9.12a1.612 1.612 0 0 0 3.223 0v-9.12a1.6 1.6 0 0 0-1.611-1.58zm0-43.43a1.6 1.6 0 0 0 1.611-1.58v-9.12a1.612 1.612 0 0 0-3.223 0v9.12a1.6 1.6 0 0 0 1.612 1.58zm17.953 37.07a1.629 1.629 0 0 0-2.279 0 1.554 1.554 0 0 0 0 2.23l6.582 6.45a1.641 1.641 0 0 0 2.279 0 1.554 1.554 0 0 0 0-2.23zm-35.9-30.71a1.64 1.64 0 0 0 2.278 0 1.552 1.552 0 0 0 0-2.23l-6.583-6.45a1.629 1.629 0 0 0-2.279 0 1.554 1.554 0 0 0 0 2.23zm6.189-12.47a1.909 1.909 0 0 0 1.059-2.51 1.984 1.984 0 0 0-2.557-1.04 1.913 1.913 0 0 0-1.059 2.51 1.976 1.976 0 0 0 2.553 1.04zm.73 6.73a1.97 1.97 0 0 0 2.558 1.04 1.9 1.9 0 0 0 1.059-2.5 1.967 1.967 0 0 0-2.558-1.04 1.9 1.9 0 0 0-1.063 2.5zm22.065 42.21a1.972 1.972 0 0 0-2.558-1.03 1.9 1.9 0 0 0-1.059 2.5 1.968 1.968 0 0 0 2.557 1.04 1.908 1.908 0 0 0 1.056-2.51zm.729 6.74a1.914 1.914 0 0 0-1.06 2.51 1.978 1.978 0 0 0 2.558 1.04 1.911 1.911 0 0 0 1.06-2.51 1.977 1.977 0 0 0-2.562-1.04zm.017-55.7a1.969 1.969 0 0 0 2.559-1.04 1.9 1.9 0 0 0-1.061-2.5 1.975 1.975 0 0 0-2.556 1.04 1.9 1.9 0 0 0 1.054 2.5zm-3.288 7.78a1.978 1.978 0 0 0 2.559-1.04 1.9 1.9 0 0 0-1.061-2.5 1.969 1.969 0 0 0-2.555 1.03 1.908 1.908 0 0 0 1.053 2.51zm-16.984 40.18a1.976 1.976 0 0 0-2.557 1.04 1.9 1.9 0 0 0 1.059 2.5 1.97 1.97 0 0 0 2.559-1.04 1.9 1.9 0 0 0-1.065-2.5zm-3.288 7.78a1.971 1.971 0 0 0-2.556 1.03 1.911 1.911 0 0 0 1.058 2.51 1.978 1.978 0 0 0 2.559-1.04 1.9 1.9 0 0 0-1.065-2.5zm-6.171-12.54l-6.583 6.45a1.554 1.554 0 0 0 0 2.23 1.641 1.641 0 0 0 2.279 0l6.582-6.45a1.552 1.552 0 0 0 0-2.23 1.627 1.627 0 0 0-2.282 0zm34.765-30.25a1.614 1.614 0 0 0 1.14-.46l6.583-6.45a1.554 1.554 0 0 0 0-2.23 1.629 1.629 0 0 0-2.279 0l-6.583 6.45a1.554 1.554 0 0 0 0 2.23 1.614 1.614 0 0 0 1.135.46z" transform="translate(-935 -3000)"/></svg>